<svg xmlns="http://www.w3.org/2000/svg" viewBox="0 0 125.6 176.62"><defs><style>.cls-1{fill:#4d4d4d;}.cls-2{fill:#9a3d68;}.cls-3{fill:#818282;}</style></defs><g id="Capa_2" data-name="Capa 2"><g id="Capa_1-2" data-name="Capa 1"><path class="cls-1" d="M122.61,0c0,1.07,0,.67,0,1.07V33.74c0,.16,0,.33,0,.49,0,.63-.14.73-.78.77-.23,0-.46,0-.69,0H82.64c0-.52,0-.93,0-1.38,0-8.1-.1-16.24-.1-24.35,0-2.68,0-5.36,0-8,0-.41,0-.79,0-1.24Z"/><path class="cls-2" d="M76.3,127.1a54.85,54.85,0,0,1-34-11.48A53,53,0,0,1,24.48,90.57a54.23,54.23,0,0,1-2.91-13.66c-.25-3.23-.25-6.48-.3-9.72-.05-2.62,0-5.23,0-7.85,0-1.38,0-1.38-1.35-1.38-9.17,0,.94,0-8.23,0a17,17,0,0,1-3.83-.44A9.68,9.68,0,0,1,.31,49,35.17,35.17,0,0,1,0,44.64C0,36.2,0,27.75,0,19.31c0-.27,0-.53,0-.8,0-.58,0-.88,0-.88H21.18c0-.52.08-.94.08-1.36V1.37c0-.47,0-.47,0-1.18,13.31,0,42.66-.08,56-.08,0,3.41,0,4.13,0,7.54.08,1.08-1.54,1.91-2.48,2-1.33.17-13.57,1.53-21.36,9a29.27,29.27,0,0,0-7.55,16.41c-.34,2.86-.53,5.74-.61,8.61a23.66,23.66,0,0,0,.5,4.33,6,6,0,0,1-.8,4.47c-1.35,2-2.62,4.13-4,6.13a20.76,20.76,0,0,1-2.55,2.76,10.63,10.63,0,0,0-2.25,2.88,3.19,3.19,0,0,0,.66,4.07A6.94,6.94,0,0,0,39.35,70a2.32,2.32,0,0,1,.75,4,6.86,6.86,0,0,1-.86.67,3.13,3.13,0,0,0-.75,3.86,2.56,2.56,0,0,0,1.25,1.09c.91.4,1.81.79,2.72,1.21.32.15.62.34,1.1.61a7.9,7.9,0,0,1-1,.51,12,12,0,0,1-1.34.37A1.87,1.87,0,0,0,39.77,84a6.08,6.08,0,0,0-.08,1.28,2,2,0,0,0,1.44,1.93c.57.19,1.14.34,1.7.54.9.33,1.06.65.87,1.59s-.37,1.61-.5,2.42a8,8,0,0,0,.68,4.75,6.68,6.68,0,0,0,4.8,3.8,46.67,46.67,0,0,0,12.52,1.16c2.31-.11,4.61-.41,6.91-.64s4.61-.46,6.91-.7c.79-.08,1.58-.12,2.37-.22a8.57,8.57,0,0,1,7.16,2.71c1.31,1.26,2.5,2.65,3.74,4l17.85,19.21c.25.26.83.87,1.16,1.26"/><path class="cls-1" d="M122.58,40.56c0,.44.06.76.06,1.08q0,36.8,0,73.59c0,4.1-3.68,8.54-4.89,10.13-1.87,2.59-1.64,2-5-.91-.35-.29-1.83-1.76-2.1-2l-5-5.37Q95.44,106.16,85.34,95.28a10,10,0,0,1-2.81-7.1c0-16.72,0-29.43,0-46.15V40.54c12.45,0,26.37,0,38.82,0Z"/><path class="cls-1" d="M0,135.14H12.09v1.74h-5V152a15.22,15.22,0,0,1-1.91,0v-15.1l-.58,0h-4a5.7,5.7,0,0,1-.58-.06Z"/><path class="cls-1" d="M55.74,140c-.11.16-.23.3-.35.46l-4.9,6.74a2.55,2.55,0,0,1-.24.31.28.28,0,0,1-.46,0,3.65,3.65,0,0,1-.24-.31c-1.64-2.25-3.27-4.5-4.91-6.74-.1-.15-.21-.29-.34-.46-.18.17-.11.36-.11.52,0,3.26,0,6.51,0,9.77v1.43c0,.16,0,.32,0,.51h-2V135.22a.86.86,0,0,1,1.1.4c2.11,2.9,4.24,5.78,6.36,8.67l.36.46c.16-.2.29-.34.4-.5q3.19-4.32,6.37-8.66a.8.8,0,0,1,1-.39c.11.41.11,16.59,0,17.11H55.88V140.09Z"/><path class="cls-1" d="M92.13,140H90.3a1.79,1.79,0,0,1-.13-.22A4.69,4.69,0,0,0,86.64,137a7.94,7.94,0,0,0-4,.08,6.1,6.1,0,0,0-4.2,4.41,8,8,0,0,0,.19,5.18,6,6,0,0,0,5.39,4,7.5,7.5,0,0,0,2.87-.25,5.45,5.45,0,0,0,4.08-4.54c0-.25.07-.51.12-.83l-.63,0H84.63v-1.58c.34-.11,7.28-.15,8.22,0,0,.36,0,.73,0,1.1a9,9,0,0,1-.69,3.36,7.25,7.25,0,0,1-4.63,4.27,9.16,9.16,0,0,1-5.67,0,7.78,7.78,0,0,1-5.23-5,9.66,9.66,0,0,1,0-6.58,7.87,7.87,0,0,1,6.62-5.48,9.09,9.09,0,0,1,5.34.71,6.41,6.41,0,0,1,3.54,3.91,1.05,1.05,0,0,1,.05.19S92.14,139.92,92.13,140Z"/><path class="cls-1" d="M111.22,139.48c.26,4.24.17,8.49.18,12.81h-1.87c-.11-.44-.13-16.59,0-17.09a.74.74,0,0,1,.92.31l10.43,12.12a1.21,1.21,0,0,0,.42.34c0-2.13-.13-4.26-.16-6.39s0-4.23,0-6.39H123v17.06c-.4.15-.63,0-.87-.31q-5.2-6.06-10.43-12.11l-.36-.39Z"/><path class="cls-1" d="M73.65,152.28c-.45-.95-.89-1.89-1.34-2.82-.16-.34-.34-.68-.48-1a.53.53,0,0,0-.6-.37H67.38c-1.3,0-2.6,0-3.9,0a.64.64,0,0,0-.67.44c-.52,1.15-1.08,2.28-1.61,3.43a.54.54,0,0,1-.59.39c-.54,0-1.08,0-1.72,0,.09-.26.14-.46.22-.64l3-6.42q2.23-4.77,4.49-9.54l.09-.18a.75.75,0,0,1,1-.38c.13.06.21.24.28.38l2.3,4.91,5.23,11.22c.08.18.13.38.21.62ZM67.4,138.36c-.29.3-3.52,7.44-3.61,7.93a71.26,71.26,0,0,0,7.16,0Z"/><path class="cls-1" d="M97.84,144.29c0,2.09,0,4.11,0,6.17H106a3,3,0,0,1,0,.34c0,.48,0,.95,0,1.41-.41.12-9.64.14-10.19,0v-17c.39-.1,9.47-.13,10.15,0v1.65c-.18,0-.37,0-.56,0H97.94a39.51,39.51,0,0,0,0,5.67h7.56a11.34,11.34,0,0,1,0,1.75Z"/><path class="cls-1" d="M14.23,135.17h1.93v.61c0,3.47,0,6.94,0,10.41a6.62,6.62,0,0,0,.2,1.66,3.34,3.34,0,0,0,3.05,2.6,5.62,5.62,0,0,0,2-.08,3.66,3.66,0,0,0,3-3.44,7.68,7.68,0,0,0,0-.83V135.17H26.3a2.91,2.91,0,0,1,.05.4c0,3.68,0,7.36,0,11.05a6.08,6.08,0,0,1-.26,1.69,5.16,5.16,0,0,1-4,3.74,7.69,7.69,0,0,1-4-.09,5,5,0,0,1-3.67-4.05,7.76,7.76,0,0,1-.15-1.52c0-3.55,0-7.1,0-10.66C14.2,135.56,14.22,135.38,14.23,135.17Z"/><path class="cls-1" d="M37.54,152.27H35.66V135.16h1.82l.06.06,0,0c0,.13,0,.26,0,.39q0,8.24,0,16.47A.71.71,0,0,1,37.54,152.27Z"/><path class="cls-3" d="M22,166.06v-9.15l.44,0h2.76a4.09,4.09,0,0,1,4.16,3.75,6.34,6.34,0,0,1-.17,2.49,4,4,0,0,1-3.75,3c-1.08.07-2.17,0-3.25,0A1.08,1.08,0,0,1,22,166.06Zm.6-.5h2.66a3.41,3.41,0,0,0,3.24-2.3,5.13,5.13,0,0,0,.16-3,3.48,3.48,0,0,0-3.53-2.78H23a3.47,3.47,0,0,0-.42,0Z"/><path class="cls-3" d="M82.32,156.85c1.28,0,2.55,0,3.8.12a3.74,3.74,0,0,1,3.34,3,5.54,5.54,0,0,1-.17,3.53,3.89,3.89,0,0,1-3.6,2.56c-1.08.08-2.16,0-3.25,0l-.13,0C82.2,165.65,82.19,157.39,82.32,156.85Zm.53,8.71c.93,0,1.82,0,2.7,0a3.32,3.32,0,0,0,3.12-2.11,4.94,4.94,0,0,0,.25-3.13,3.5,3.5,0,0,0-3.6-2.89h-2l-.45,0Z"/><path class="cls-3" d="M9.81,162.57c.36.58.73,1.16,1.1,1.73L12,166.06a.72.72,0,0,1-.94-.35c-.55-.93-1.17-1.82-1.74-2.75a.69.69,0,0,0-.68-.37c-.7,0-1.41,0-2.12,0-.14,0-.29,0-.49.05,0,1.15,0,2.27,0,3.43l-.53,0V156.9l.45,0c1.07,0,2.14,0,3.21,0a2.77,2.77,0,0,1,2.77,2.5,2.73,2.73,0,0,1-1.26,2.8A6.36,6.36,0,0,1,9.81,162.57ZM6.08,162c.08,0,.12.07.17.07,1.11,0,2.23,0,3.34,0a1.61,1.61,0,0,0,1.18-.65,2.38,2.38,0,0,0,.58-1.48,2.29,2.29,0,0,0-2.24-2.47c-.85.05-1.71,0-2.56,0l-.47,0Z"/><path class="cls-3" d="M41.67,161.61a4.77,4.77,0,0,1-1.56,3.47,4,4,0,0,1-5.4.12,4.92,4.92,0,0,1,.21-7.58,4,4,0,0,1,5.48.58A5,5,0,0,1,41.67,161.61ZM41,161.4a4.18,4.18,0,0,0-1.36-3.11,3.38,3.38,0,0,0-4.72.06,4.45,4.45,0,0,0-.16,6.15,3.45,3.45,0,0,0,5.31-.25A4.36,4.36,0,0,0,41,161.4Z"/><path class="cls-3" d="M49.19,161.45a4.77,4.77,0,0,1,1.67-3.63,4,4,0,0,1,5.39.06,4.94,4.94,0,0,1,.31,6.92,4.07,4.07,0,0,1-6.29-.22A5,5,0,0,1,49.19,161.45Zm.61,0a4.35,4.35,0,0,0,1.32,3.18,3.41,3.41,0,0,0,4.69.08,4.44,4.44,0,0,0,.23-6.25,3.4,3.4,0,0,0-5,0A4.31,4.31,0,0,0,49.8,161.47Z"/><path class="cls-3" d="M66.19,162.15H64.13l0-.45h2.52a29.22,29.22,0,0,1,0,4.37l-.21,0a1.48,1.48,0,0,1-.27,0v-1.26c-.26,0-.34.18-.47.29a4,4,0,0,1-2.14,1,3.86,3.86,0,0,1-3.45-1.2,4.91,4.91,0,0,1-.28-6.64,4.17,4.17,0,0,1,5.1-1,3.3,3.3,0,0,1,1.49,1.53l-.44.29a1.58,1.58,0,0,1-.14-.16,3.45,3.45,0,0,0-5.23-.62,4.42,4.42,0,0,0,.38,6.64,3.37,3.37,0,0,0,3.8.23,6.58,6.58,0,0,0,.61-.42,1.55,1.55,0,0,0,.77-1.62A6.25,6.25,0,0,1,66.19,162.15Z"/><path class="cls-3" d="M101.06,158.8l-.47.27c-.07-.1-.14-.18-.2-.28a3.23,3.23,0,0,0-3-1.42,3.32,3.32,0,0,0-2.67,1.55,4.44,4.44,0,0,0,.52,5.69,3.49,3.49,0,0,0,4.6.29l.34-.28a1.42,1.42,0,0,0,.65-1.43,8.71,8.71,0,0,1,0-1h-2c-.1-.24-.18-.47.13-.48.77,0,1.54,0,2.29,0a30.76,30.76,0,0,1,0,4.41l-.42,0v-1.3c-.27,0-.36.17-.48.28a4.09,4.09,0,0,1-2.19,1,3.83,3.83,0,0,1-2.92-.78,4.92,4.92,0,0,1-.48-7.38,4.18,4.18,0,0,1,4.79-.74A3.34,3.34,0,0,1,101.06,158.8Z"/><path class="cls-3" d="M112,166.09h-.64l3.9-9.19h.56c1.28,3,2.57,6.1,3.88,9.19h-.63c-.09-.21-.2-.43-.29-.66-.29-.68-.58-1.36-.86-2a.44.44,0,0,0-.47-.34h-3.84a.4.4,0,0,0-.44.3l-1,2.27Zm5.53-3.56a33.44,33.44,0,0,0-2-4.79c-.68,1.58-1.36,3.15-2,4.79Z"/><path class="cls-3" d="M70.77,166.09h-.66C71.43,163,72.72,160,74,156.9l.55,0,3.89,9.21h-.62c-.06-.12-.14-.26-.2-.41-.32-.76-.65-1.51-1-2.27a.46.46,0,0,0-.5-.36q-1.87,0-3.75,0a.51.51,0,0,0-.54.39C71.53,164.31,71.15,165.18,70.77,166.09Zm5.53-3.56a37.64,37.64,0,0,0-2-4.76,40.67,40.67,0,0,0-2,4.76Z"/><path class="cls-3" d="M16.35,156.9h.55l3.88,9.18h-.63l-1.28-3-.44,0c-1.2,0-2.4,0-3.6,0a.59.59,0,0,0-.64.45c-.3.75-.62,1.48-.94,2.22-.05.12-.11.24-.17.37h-.64Zm-1.74,5.61a21.4,21.4,0,0,0,4-.06l-2-4.73A38,38,0,0,0,14.61,162.51Z"/><path class="cls-3" d="M108.76,166.07a1.76,1.76,0,0,1-.25,0l-.36,0c0-.58,0-1.15,0-1.71v-6.95h-3.35l0-.47c.38-.1,6.81-.12,7.35,0v.48h-3.35Z"/><path class="cls-3" d="M120.91,156.9h.56v8.62a9.68,9.68,0,0,0,1.41,0h2.38a1.14,1.14,0,0,1,.32,0s0,.25,0,.31,0,.21-.19.21h-4.49Z"/><path class="cls-3" d="M43.8,165.56h5.49v.52H43.2v-9.17l.26,0,.3,0v2.86c0,1,0,1.94,0,2.91S43.72,164.57,43.8,165.56Z"/><path class="cls-3" d="M68.4,156.9h.5c.1.36.13,8.45,0,9.17H68.4Z"/><path class="cls-3" d="M103.54,166.09H103V156.9h.53Z"/><path class="cls-3" d="M91.29,156.9h.42c.11.35.15,8.15.05,9.18l-.45,0C91.18,165.72,91.16,157.41,91.29,156.9Z"/><path class="cls-3" d="M31,156.91l.25,0,.27,0v9.17l-.26,0-.26,0Z"/><path class="cls-3" d="M68.22,155.28c.23-.32.4-.53.53-.75a.59.59,0,0,1,.77-.31,3.74,3.74,0,0,1-.81,1.1A1.89,1.89,0,0,1,68.22,155.28Z"/><path class="cls-3" d="M49.7,169.76c.32-.15.47,0,.61.24.79,1.36,1.59,2.72,2.38,4.09.09.15.19.29.32.51l.3-.45c.8-1.38,1.61-2.75,2.4-4.13.14-.24.28-.42.61-.26,0,.13,0,.28,0,.42V176a2.71,2.71,0,0,1,0,.29c0,.22-.15.22-.39.14,0-.92,0-1.87,0-2.81v-2.89c-.25.06-.29.24-.36.37l-2.12,3.61a3,3,0,0,1-.2.34c-.16.21-.32.21-.46,0s-.38-.62-.56-.94l-1.74-3c-.08-.14-.17-.27-.31-.48a6.34,6.34,0,0,0-.07,1.48c0,.49,0,1,0,1.48v2.87l-.41,0Z"/><path class="cls-3" d="M41.3,173.32c-.06.33-.1.67-.19,1s-.23.61-.37,1l1.08,1.15a.51.51,0,0,1-.66-.1c-.21-.23-.43-.45-.68-.7l-.43.35a2.55,2.55,0,0,1-2.81.39,1.67,1.67,0,0,1-.64-2.64,5.71,5.71,0,0,1,.71-.68c.12-.11.25-.2.39-.32-.22-.27-.42-.51-.6-.76a1.36,1.36,0,0,1,.23-2,1.78,1.78,0,0,1,2.3.19,1.17,1.17,0,0,1,0,1.47,5,5,0,0,1-.76.76,6.23,6.23,0,0,1-.58.44l2.07,2.15a2.25,2.25,0,0,0,.46-1.14,3.11,3.11,0,0,1,.08-.44c0-.07.15-.1.23-.15ZM38,173a3.43,3.43,0,0,0-1.17,1.09,1.33,1.33,0,0,0,.39,1.83,2.13,2.13,0,0,0,3-.64Zm.09-.44a12.78,12.78,0,0,0,1.18-1,.92.92,0,0,0-.42-1.54,1.3,1.3,0,0,0-1.26.19,1,1,0,0,0-.28,1.35A12.74,12.74,0,0,0,38.08,172.57Z"/><path class="cls-3" d="M5.21,173.2a3.55,3.55,0,0,1,1-2.66,3,3,0,0,1,4.25,0,3.66,3.66,0,0,1,.15,5,3,3,0,0,1-4.78-.31A3.46,3.46,0,0,1,5.21,173.2Zm3.18-3.15a2.42,2.42,0,0,0-1.85.78,3.31,3.31,0,0,0-.11,4.44,2.56,2.56,0,0,0,3.87,0,3.3,3.3,0,0,0-.07-4.47A2.42,2.42,0,0,0,8.39,170.05Z"/><path class="cls-3" d="M24.13,176.51c-.45-.06-.45-.06-.62-.72l-.27.21a2.59,2.59,0,0,1-2.07.58,1.53,1.53,0,0,1-1.3-1.24,1.26,1.26,0,0,1,.46-1.23,1.91,1.91,0,0,1,1.22-.46c.52,0,1.05.07,1.57.12.11,0,.21,0,.32.06a1.52,1.52,0,0,0-1.89-2c-.39.12-.76.29-1.18.46l-.14-.19a2.85,2.85,0,0,1,2.33-.6,1.71,1.71,0,0,1,1.38,1.75c0,.7,0,1.41,0,2.11,0,.29-.06.59.18.84C24.17,176.25,24.13,176.38,24.13,176.51Zm-2.08-2.66c-.33.08-.68.11-1,.22a1,1,0,0,0-.78,1.07,1.18,1.18,0,0,0,.87,1.07,2.08,2.08,0,0,0,1.7-.26,1.31,1.31,0,0,0,.66-1.63.44.44,0,0,0-.28-.23C22.84,174,22.45,173.93,22.05,173.85Z"/><path class="cls-3" d="M85.17,171.46a2.49,2.49,0,0,1,2.39,2.95,3,3,0,0,1-.38,1.05,2.35,2.35,0,0,1-4.1-.08,2.62,2.62,0,0,1,.15-2.92A2.2,2.2,0,0,1,85.17,171.46Zm-2,2.57a2.23,2.23,0,0,0,.89,1.84,1.85,1.85,0,0,0,2.2,0,2.31,2.31,0,0,0-.08-3.75,1.79,1.79,0,0,0-2.19.14A2.3,2.3,0,0,0,83.15,174Z"/><path class="cls-3" d="M99.2,173.85a5.14,5.14,0,0,0,0-.91,1.44,1.44,0,0,0-1.69-1.15,3.55,3.55,0,0,0-.71.19c-.23.09-.44.22-.66.33-.18-.11-.2-.22,0-.34a2.8,2.8,0,0,1,2.3-.43,1.71,1.71,0,0,1,1.25,1.8c0,.7,0,1.41,0,2.12,0,.25,0,.52.18.73,0,.05,0,.18,0,.28-.43,0-.43,0-.63-.67a3.16,3.16,0,0,0-.27.2,2.53,2.53,0,0,1-2,.59,1.54,1.54,0,0,1-1.4-1.25,1.39,1.39,0,0,1,1-1.55,3.94,3.94,0,0,1,1.9-.09Zm-1.47,0a10.17,10.17,0,0,0-1,.23,1,1,0,0,0-.78,1,1.21,1.21,0,0,0,.8,1.09,1.9,1.9,0,0,0,1.35,0,1.43,1.43,0,0,0,1.12-1.71c0-.19-.07-.31-.27-.35Z"/><path class="cls-3" d="M64,176.49c-.46,0-.46,0-.62-.68a2,2,0,0,0-.28.19,2.59,2.59,0,0,1-2.07.58,1.47,1.47,0,0,1-1.06-.65,1.29,1.29,0,0,1,.39-1.92,2.38,2.38,0,0,1,1.06-.35,14.71,14.71,0,0,1,1.61.12l.28.05a1.53,1.53,0,0,0-1.9-2c-.39.12-.76.29-1.18.46-.11-.07-.19-.18,0-.31a2.79,2.79,0,0,1,2.34-.43,1.7,1.7,0,0,1,1.23,1.76c0,.69,0,1.38,0,2.07a1.1,1.1,0,0,0,.18.84S64,176.37,64,176.49Zm-2.09-2.64a10,10,0,0,0-1,.23,1,1,0,0,0-.78,1,1.22,1.22,0,0,0,.84,1.11,1.88,1.88,0,0,0,1.3-.06,1.42,1.42,0,0,0,1.12-1.7c0-.19-.07-.32-.26-.36Z"/><path class="cls-3" d="M118,175.78l-.34.28a2.58,2.58,0,0,1-2.09.5,1.46,1.46,0,0,1-1.2-1.32,1.31,1.31,0,0,1,.88-1.39,3.6,3.6,0,0,1,2-.15c.22,0,.44.09.66.14a1.51,1.51,0,0,0-1.68-2,10.25,10.25,0,0,0-1.42.47l-.11-.18a2.77,2.77,0,0,1,2.45-.55,1.62,1.62,0,0,1,1.23,1.6c0,.73,0,1.47,0,2.21a1.1,1.1,0,0,0,.18.84c0,.06,0,.19,0,.28C118.16,176.49,118.14,176.47,118,175.78Zm0-1c0-.64,0-.67-.6-.79l-.28-.06a2.94,2.94,0,0,0-1.78.19,1,1,0,0,0-.54,1.35,1.21,1.21,0,0,0,.81.73,2.09,2.09,0,0,0,1.73-.3A1.13,1.13,0,0,0,118,174.8Z"/><path class="cls-3" d="M107,175.33l.32.12a.53.53,0,0,1,0,.16,2.25,2.25,0,0,1-2.59.91,2.51,2.51,0,0,1-1.77-2.51,2.42,2.42,0,0,1,1.74-2.46,2.46,2.46,0,0,1,1.69.1,1.86,1.86,0,0,1,.94.88l-.36.15c0-.05-.1-.08-.12-.12a1.91,1.91,0,0,0-3.34.64,2.26,2.26,0,0,0,.4,2.32,1.89,1.89,0,0,0,3,0Z"/><path class="cls-3" d="M69.05,174.34l-.94,1.21c-.2.26-.4.52-.61.77s-.14.16-.55.15c.3-.45.63-.83.93-1.22s.6-.78.93-1.21L67,171.62a.42.42,0,0,1,.59.17l1.12,1.44.38.45a3.44,3.44,0,0,0,.27-.27l1.24-1.59c.2-.26.21-.26.63-.21L69.31,174l1.83,2.39c-.29.17-.43,0-.57-.15-.38-.5-.76-1-1.15-1.48Z"/><path class="cls-3" d="M91.05,171.49a3.67,3.67,0,0,1,0-.51,3.41,3.41,0,0,1,.21-.85,1.35,1.35,0,0,1,1.94-.54c.11.07.11.07,0,.35-.49-.17-1-.34-1.42.1a1.83,1.83,0,0,0-.38,1.48l1.36.06c.08.2,0,.26-.14.27h-.64l-.57,0c0,.22,0,.39,0,.57v3.45a2.68,2.68,0,0,1,0,.4c0,.21-.16.21-.37.11v-4.34c-.19-.35-.58-.07-.72-.46Z"/><path class="cls-3" d="M123.67,176.13l.07.34a5.83,5.83,0,0,1-.8.1.8.8,0,0,1-.83-.79c0-.1,0-.2,0-.3v-5.94l.43,0v5.65c0,.13,0,.26,0,.39a.61.61,0,0,0,.71.63A2.25,2.25,0,0,0,123.67,176.13Z"/><path class="cls-3" d="M80.16,176.11c-.08.18-.09.33-.15.35a1.41,1.41,0,0,1-1,0,.71.71,0,0,1-.45-.54,2.12,2.12,0,0,1-.06-.43v-5.67c0-.09,0-.19,0-.32l.41,0v5.6c0,.13,0,.26,0,.39a.66.66,0,0,0,.81.69Z"/><path class="cls-3" d="M15.36,176.44c-.35.12-.44,0-.44-.26,0-.49,0-1,0-1.48v-3.07c.26-.1.41-.09.42.18a4.14,4.14,0,0,0,.05.77,2.32,2.32,0,0,1,1.81-1.06l0,.35c-.2,0-.39.09-.57.15a1.81,1.81,0,0,0-1.31,1.81v2.61Z"/><path class="cls-3" d="M29.24,176.48a7.65,7.65,0,0,1-.79.09.77.77,0,0,1-.81-.76,1.93,1.93,0,0,1,0-.24V170c0-.13,0-.26,0-.39.23-.1.37-.06.38.19s0,.3,0,.45v4.68c0,.15,0,.3,0,.44,0,.74.19.91.92.83C29.19,176.13,29.24,176.22,29.24,176.48Z"/><path class="cls-3" d="M74.35,171.56l.39,0v4.82c-.34.1-.36.09-.39-.17s0-.23,0-.34v-4.34Z"/><path class="cls-3" d="M110.7,171.59H111a1.77,1.77,0,0,1,0,.3c0,1.41,0,2.82,0,4.24,0,.33,0,.33-.34.33A41.25,41.25,0,0,1,110.7,171.59Z"/><path class="cls-3" d="M74.74,170.28c-.42.05-.45,0-.34-.74l.34,0Z"/><path class="cls-3" d="M110.68,170.33v-.8h.42c0,.27-.06.52-.12.76C111,170.32,110.81,170.32,110.68,170.33Z"/><path class="cls-3" d="M61.6,170.29c.47-.78.47-.78.92-.76a2.31,2.31,0,0,1-.67.81S61.72,170.31,61.6,170.29Z"/></g></g></svg>